<svg width="80" height="138" viewBox="0 0 80 138" fill="none" xmlns="http://www.w3.org/2000/svg">
<circle r="5" transform="matrix(1 0 0 -1 5 5)" fill="#4E0707"/>
<circle r="5" transform="matrix(1 0 0 -1 5 5)" fill="black" fill-opacity="0.2"/>
<circle r="5" transform="matrix(1 0 0 -1 5 5)" fill="black" fill-opacity="0.2"/>
<circle r="5" transform="matrix(1 0 0 -1 5 21)" fill="#4E0707"/>
<circle r="5" transform="matrix(1 0 0 -1 5 21)" fill="black" fill-opacity="0.2"/>
<circle r="5" transform="matrix(1 0 0 -1 5 21)" fill="black" fill-opacity="0.2"/>
<circle r="5" transform="matrix(1 0 0 -1 19 21)" fill="#4E0707"/>
<circle r="5" transform="matrix(1 0 0 -1 19 21)" fill="black" fill-opacity="0.2"/>
<circle r="5" transform="matrix(1 0 0 -1 19 21)" fill="black" fill-opacity="0.2"/>
<circle r="5" transform="matrix(1 0 0 -1 33 21)" fill="#4E0707"/>
<circle r="5" transform="matrix(1 0 0 -1 33 21)" fill="black" fill-opacity="0.2"/>
<circle r="5" transform="matrix(1 0 0 -1 33 21)" fill="black" fill-opacity="0.2"/>
<circle r="5" transform="matrix(1 0 0 -1 47 21)" fill="#4E0707"/>
<circle r="5" transform="matrix(1 0 0 -1 47 21)" fill="black" fill-opacity="0.2"/>
<circle r="5" transform="matrix(1 0 0 -1 47 21)" fill="black" fill-opacity="0.2"/>
<circle r="5" transform="matrix(1 0 0 -1 61 21)" fill="#4E0707"/>
<circle r="5" transform="matrix(1 0 0 -1 61 21)" fill="black" fill-opacity="0.2"/>
<circle r="5" transform="matrix(1 0 0 -1 61 21)" fill="black" fill-opacity="0.2"/>
<circle r="5" transform="matrix(1 0 0 -1 75 21)" fill="#4E0707"/>
<circle r="5" transform="matrix(1 0 0 -1 75 21)" fill="black" fill-opacity="0.2"/>
<circle r="5" transform="matrix(1 0 0 -1 75 21)" fill="black" fill-opacity="0.2"/>
<circle r="5" transform="matrix(1 0 0 -1 5 37)" fill="#4E0707"/>
<circle r="5" transform="matrix(1 0 0 -1 5 37)" fill="black" fill-opacity="0.2"/>
<circle r="5" transform="matrix(1 0 0 -1 5 37)" fill="black" fill-opacity="0.2"/>
<circle r="5" transform="matrix(1 0 0 -1 19 37)" fill="#4E0707"/>
<circle r="5" transform="matrix(1 0 0 -1 19 37)" fill="black" fill-opacity="0.2"/>
<circle r="5" transform="matrix(1 0 0 -1 19 37)" fill="black" fill-opacity="0.2"/>
<circle r="5" transform="matrix(1 0 0 -1 33 37)" fill="#4E0707"/>
<circle r="5" transform="matrix(1 0 0 -1 33 37)" fill="black" fill-opacity="0.2"/>
<circle r="5" transform="matrix(1 0 0 -1 33 37)" fill="black" fill-opacity="0.2"/>
<circle r="5" transform="matrix(1 0 0 -1 47 37)" fill="#4E0707"/>
<circle r="5" transform="matrix(1 0 0 -1 47 37)" fill="black" fill-opacity="0.2"/>
<circle r="5" transform="matrix(1 0 0 -1 47 37)" fill="black" fill-opacity="0.2"/>
<circle r="5" transform="matrix(1 0 0 -1 61 37)" fill="#4E0707"/>
<circle r="5" transform="matrix(1 0 0 -1 61 37)" fill="black" fill-opacity="0.2"/>
<circle r="5" transform="matrix(1 0 0 -1 61 37)" fill="black" fill-opacity="0.2"/>
<circle r="5" transform="matrix(1 0 0 -1 75 37)" fill="#4E0707"/>
<circle r="5" transform="matrix(1 0 0 -1 75 37)" fill="black" fill-opacity="0.2"/>
<circle r="5" transform="matrix(1 0 0 -1 75 37)" fill="black" fill-opacity="0.2"/>
<circle r="5" transform="matrix(1 0 0 -1 5 53)" fill="#4E0707"/>
<circle r="5" transform="matrix(1 0 0 -1 5 53)" fill="black" fill-opacity="0.2"/>
<circle r="5" transform="matrix(1 0 0 -1 5 53)" fill="black" fill-opacity="0.2"/>
<circle r="5" transform="matrix(1 0 0 -1 19 53)" fill="#4E0707"/>
<circle r="5" transform="matrix(1 0 0 -1 19 53)" fill="black" fill-opacity="0.2"/>
<circle r="5" transform="matrix(1 0 0 -1 19 53)" fill="black" fill-opacity="0.2"/>
<circle r="5" transform="matrix(1 0 0 -1 33 53)" fill="#4E0707"/>
<circle r="5" transform="matrix(1 0 0 -1 33 53)" fill="black" fill-opacity="0.2"/>
<circle r="5" transform="matrix(1 0 0 -1 33 53)" fill="black" fill-opacity="0.2"/>
<circle r="5" transform="matrix(1 0 0 -1 47 53)" fill="#4E0707"/>
<circle r="5" transform="matrix(1 0 0 -1 47 53)" fill="black" fill-opacity="0.2"/>
<circle r="5" transform="matrix(1 0 0 -1 47 53)" fill="black" fill-opacity="0.2"/>
<circle r="5" transform="matrix(1 0 0 -1 61 53)" fill="#4E0707"/>
<circle r="5" transform="matrix(1 0 0 -1 61 53)" fill="black" fill-opacity="0.2"/>
<circle r="5" transform="matrix(1 0 0 -1 61 53)" fill="black" fill-opacity="0.2"/>
<circle r="5" transform="matrix(1 0 0 -1 75 53)" fill="#4E0707"/>
<circle r="5" transform="matrix(1 0 0 -1 75 53)" fill="black" fill-opacity="0.2"/>
<circle r="5" transform="matrix(1 0 0 -1 75 53)" fill="black" fill-opacity="0.2"/>
<circle r="5" transform="matrix(1 0 0 -1 5 69)" fill="#4E0707"/>
<circle r="5" transform="matrix(1 0 0 -1 5 69)" fill="black" fill-opacity="0.2"/>
<circle r="5" transform="matrix(1 0 0 -1 5 69)" fill="black" fill-opacity="0.2"/>
<circle r="5" transform="matrix(1 0 0 -1 19 69)" fill="#4E0707"/>
<circle r="5" transform="matrix(1 0 0 -1 19 69)" fill="black" fill-opacity="0.2"/>
<circle r="5" transform="matrix(1 0 0 -1 19 69)" fill="black" fill-opacity="0.2"/>
<circle r="5" transform="matrix(1 0 0 -1 33 69)" fill="#4E0707"/>
<circle r="5" transform="matrix(1 0 0 -1 33 69)" fill="black" fill-opacity="0.2"/>
<circle r="5" transform="matrix(1 0 0 -1 33 69)" fill="black" fill-opacity="0.2"/>
<circle r="5" transform="matrix(1 0 0 -1 47 69)" fill="#4E0707"/>
<circle r="5" transform="matrix(1 0 0 -1 47 69)" fill="black" fill-opacity="0.2"/>
<circle r="5" transform="matrix(1 0 0 -1 47 69)" fill="black" fill-opacity="0.2"/>
<circle r="5" transform="matrix(1 0 0 -1 61 69)" fill="#4E0707"/>
<circle r="5" transform="matrix(1 0 0 -1 61 69)" fill="black" fill-opacity="0.2"/>
<circle r="5" transform="matrix(1 0 0 -1 61 69)" fill="black" fill-opacity="0.2"/>
<circle r="5" transform="matrix(1 0 0 -1 75 69)" fill="#4E0707"/>
<circle r="5" transform="matrix(1 0 0 -1 75 69)" fill="black" fill-opacity="0.2"/>
<circle r="5" transform="matrix(1 0 0 -1 75 69)" fill="black" fill-opacity="0.2"/>
<circle r="5" transform="matrix(1 0 0 -1 5 85)" fill="#4E0707"/>
<circle r="5" transform="matrix(1 0 0 -1 5 85)" fill="black" fill-opacity="0.2"/>
<circle r="5" transform="matrix(1 0 0 -1 5 85)" fill="black" fill-opacity="0.2"/>
<circle r="5" transform="matrix(1 0 0 -1 19 85)" fill="#4E0707"/>
<circle r="5" transform="matrix(1 0 0 -1 19 85)" fill="black" fill-opacity="0.2"/>
<circle r="5" transform="matrix(1 0 0 -1 19 85)" fill="black" fill-opacity="0.2"/>
<circle r="5" transform="matrix(1 0 0 -1 33 85)" fill="#4E0707"/>
<circle r="5" transform="matrix(1 0 0 -1 33 85)" fill="black" fill-opacity="0.2"/>
<circle r="5" transform="matrix(1 0 0 -1 33 85)" fill="black" fill-opacity="0.2"/>
<circle r="5" transform="matrix(1 0 0 -1 47 85)" fill="#4E0707"/>
<circle r="5" transform="matrix(1 0 0 -1 47 85)" fill="black" fill-opacity="0.2"/>
<circle r="5" transform="matrix(1 0 0 -1 47 85)" fill="black" fill-opacity="0.2"/>
<circle r="5" transform="matrix(1 0 0 -1 61 85)" fill="#4E0707"/>
<circle r="5" transform="matrix(1 0 0 -1 61 85)" fill="black" fill-opacity="0.2"/>
<circle r="5" transform="matrix(1 0 0 -1 61 85)" fill="black" fill-opacity="0.2"/>
<circle r="5" transform="matrix(1 0 0 -1 75 85)" fill="#4E0707"/>
<circle r="5" transform="matrix(1 0 0 -1 75 85)" fill="black" fill-opacity="0.2"/>
<circle r="5" transform="matrix(1 0 0 -1 75 85)" fill="black" fill-opacity="0.2"/>
<circle r="5" transform="matrix(1 0 0 -1 5 101)" fill="#4E0707"/>
<circle r="5" transform="matrix(1 0 0 -1 5 101)" fill="black" fill-opacity="0.2"/>
<circle r="5" transform="matrix(1 0 0 -1 5 101)" fill="black" fill-opacity="0.2"/>
<circle r="5" transform="matrix(1 0 0 -1 19 101)" fill="#4E0707"/>
<circle r="5" transform="matrix(1 0 0 -1 19 101)" fill="black" fill-opacity="0.2"/>
<circle r="5" transform="matrix(1 0 0 -1 19 101)" fill="black" fill-opacity="0.2"/>
<circle r="5" transform="matrix(1 0 0 -1 33 101)" fill="#4E0707"/>
<circle r="5" transform="matrix(1 0 0 -1 33 101)" fill="black" fill-opacity="0.2"/>
<circle r="5" transform="matrix(1 0 0 -1 33 101)" fill="black" fill-opacity="0.2"/>
<circle r="5" transform="matrix(1 0 0 -1 47 101)" fill="#4E0707"/>
<circle r="5" transform="matrix(1 0 0 -1 47 101)" fill="black" fill-opacity="0.2"/>
<circle r="5" transform="matrix(1 0 0 -1 47 101)" fill="black" fill-opacity="0.2"/>
<circle r="5" transform="matrix(1 0 0 -1 61 101)" fill="#4E0707"/>
<circle r="5" transform="matrix(1 0 0 -1 61 101)" fill="black" fill-opacity="0.2"/>
<circle r="5" transform="matrix(1 0 0 -1 61 101)" fill="black" fill-opacity="0.2"/>
<circle r="5" transform="matrix(1 0 0 -1 75 101)" fill="#4E0707"/>
<circle r="5" transform="matrix(1 0 0 -1 75 101)" fill="black" fill-opacity="0.2"/>
<circle r="5" transform="matrix(1 0 0 -1 75 101)" fill="black" fill-opacity="0.2"/>
<circle r="5" transform="matrix(1 0 0 -1 5 117)" fill="#4E0707"/>
<circle r="5" transform="matrix(1 0 0 -1 5 117)" fill="black" fill-opacity="0.2"/>
<circle r="5" transform="matrix(1 0 0 -1 5 117)" fill="black" fill-opacity="0.2"/>
<circle r="5" transform="matrix(1 0 0 -1 19 117)" fill="#4E0707"/>
<circle r="5" transform="matrix(1 0 0 -1 19 117)" fill="black" fill-opacity="0.2"/>
<circle r="5" transform="matrix(1 0 0 -1 19 117)" fill="black" fill-opacity="0.2"/>
<circle r="5" transform="matrix(1 0 0 -1 33 117)" fill="#4E0707"/>
<circle r="5" transform="matrix(1 0 0 -1 33 117)" fill="black" fill-opacity="0.2"/>
<circle r="5" transform="matrix(1 0 0 -1 33 117)" fill="black" fill-opacity="0.2"/>
<circle r="5" transform="matrix(1 0 0 -1 47 117)" fill="#4E0707"/>
<circle r="5" transform="matrix(1 0 0 -1 47 117)" fill="black" fill-opacity="0.2"/>
<circle r="5" transform="matrix(1 0 0 -1 47 117)" fill="black" fill-opacity="0.2"/>
<circle r="5" transform="matrix(1 0 0 -1 61 117)" fill="#4E0707"/>
<circle r="5" transform="matrix(1 0 0 -1 61 117)" fill="black" fill-opacity="0.2"/>
<circle r="5" transform="matrix(1 0 0 -1 61 117)" fill="black" fill-opacity="0.2"/>
<circle r="5" transform="matrix(1 0 0 -1 75 117)" fill="#4E0707"/>
<circle r="5" transform="matrix(1 0 0 -1 75 117)" fill="black" fill-opacity="0.2"/>
<circle r="5" transform="matrix(1 0 0 -1 75 117)" fill="black" fill-opacity="0.2"/>
<circle r="5" transform="matrix(1 0 0 -1 5 133)" fill="#4E0707"/>
<circle r="5" transform="matrix(1 0 0 -1 5 133)" fill="black" fill-opacity="0.2"/>
<circle r="5" transform="matrix(1 0 0 -1 5 133)" fill="black" fill-opacity="0.2"/>
<circle r="5" transform="matrix(1 0 0 -1 19 133)" fill="#4E0707"/>
<circle r="5" transform="matrix(1 0 0 -1 19 133)" fill="black" fill-opacity="0.2"/>
<circle r="5" transform="matrix(1 0 0 -1 19 133)" fill="black" fill-opacity="0.2"/>
<circle r="5" transform="matrix(1 0 0 -1 33 133)" fill="#4E0707"/>
<circle r="5" transform="matrix(1 0 0 -1 33 133)" fill="black" fill-opacity="0.2"/>
<circle r="5" transform="matrix(1 0 0 -1 33 133)" fill="black" fill-opacity="0.2"/>
<circle r="5" transform="matrix(1 0 0 -1 47 133)" fill="#4E0707"/>
<circle r="5" transform="matrix(1 0 0 -1 47 133)" fill="black" fill-opacity="0.2"/>
<circle r="5" transform="matrix(1 0 0 -1 47 133)" fill="black" fill-opacity="0.2"/>
<circle r="5" transform="matrix(1 0 0 -1 61 133)" fill="#4E0707"/>
<circle r="5" transform="matrix(1 0 0 -1 61 133)" fill="black" fill-opacity="0.2"/>
<circle r="5" transform="matrix(1 0 0 -1 61 133)" fill="black" fill-opacity="0.2"/>
<circle r="5" transform="matrix(1 0 0 -1 75 133)" fill="#4E0707"/>
<circle r="5" transform="matrix(1 0 0 -1 75 133)" fill="black" fill-opacity="0.2"/>
<circle r="5" transform="matrix(1 0 0 -1 75 133)" fill="black" fill-opacity="0.2"/>
<circle r="5" transform="matrix(1 0 0 -1 19 5)" fill="#4E0707"/>
<circle r="5" transform="matrix(1 0 0 -1 19 5)" fill="black" fill-opacity="0.2"/>
<circle r="5" transform="matrix(1 0 0 -1 19 5)" fill="black" fill-opacity="0.2"/>
<circle r="5" transform="matrix(1 0 0 -1 33 5)" fill="#4E0707"/>
<circle r="5" transform="matrix(1 0 0 -1 33 5)" fill="black" fill-opacity="0.2"/>
<circle r="5" transform="matrix(1 0 0 -1 33 5)" fill="black" fill-opacity="0.2"/>
<circle r="5" transform="matrix(1 0 0 -1 47 5)" fill="#4E0707"/>
<circle r="5" transform="matrix(1 0 0 -1 47 5)" fill="black" fill-opacity="0.2"/>
<circle r="5" transform="matrix(1 0 0 -1 47 5)" fill="black" fill-opacity="0.2"/>
<circle r="5" transform="matrix(1 0 0 -1 61 5)" fill="#4E0707"/>
<circle r="5" transform="matrix(1 0 0 -1 61 5)" fill="black" fill-opacity="0.2"/>
<circle r="5" transform="matrix(1 0 0 -1 61 5)" fill="black" fill-opacity="0.2"/>
<circle r="5" transform="matrix(1 0 0 -1 75 5)" fill="#4E0707"/>
<circle r="5" transform="matrix(1 0 0 -1 75 5)" fill="black" fill-opacity="0.2"/>
<circle r="5" transform="matrix(1 0 0 -1 75 5)" fill="black" fill-opacity="0.2"/>
</svg>
