<svg width="41" height="41" viewBox="0 0 41 41" fill="none" xmlns="http://www.w3.org/2000/svg">
<circle cx="20.5" cy="20.5" r="20.5" fill="#FFFDE4"/>
<path d="M21.1094 9C14.4199 9 9 14.4199 9 21.1094C9 27.7988 14.4199 33.2188 21.1094 33.2188C27.7988 33.2188 33.2188 27.7988 33.2188 21.1094C33.2188 14.4199 27.7988 9 21.1094 9ZM23.8975 26.0947L19.5908 22.9648C19.4395 22.8525 19.3516 22.6768 19.3516 22.4912V14.2734C19.3516 13.9512 19.6152 13.6875 19.9375 13.6875H22.2812C22.6035 13.6875 22.8672 13.9512 22.8672 14.2734V20.9971L25.9678 23.2529C26.2314 23.4434 26.2852 23.8096 26.0947 24.0732L24.7178 25.9678C24.5273 26.2266 24.1611 26.2852 23.8975 26.0947Z" fill="#E5D5B5"/>
</svg>
