<svg width="41" height="41" viewBox="0 0 41 41" fill="none" xmlns="http://www.w3.org/2000/svg">
<circle cx="20.5" cy="20.5" r="20.5" fill="#FFFDE4"/>
<path d="M12 29.0312C12 30.1182 12.8818 31 13.9688 31H28.4062C29.4932 31 30.375 30.1182 30.375 29.0312V17.875H12V29.0312ZM25.125 20.9922C25.125 20.7215 25.3465 20.5 25.6172 20.5H27.2578C27.5285 20.5 27.75 20.7215 27.75 20.9922V22.6328C27.75 22.9035 27.5285 23.125 27.2578 23.125H25.6172C25.3465 23.125 25.125 22.9035 25.125 22.6328V20.9922ZM25.125 26.2422C25.125 25.9715 25.3465 25.75 25.6172 25.75H27.2578C27.5285 25.75 27.75 25.9715 27.75 26.2422V27.8828C27.75 28.1535 27.5285 28.375 27.2578 28.375H25.6172C25.3465 28.375 25.125 28.1535 25.125 27.8828V26.2422ZM19.875 20.9922C19.875 20.7215 20.0965 20.5 20.3672 20.5H22.0078C22.2785 20.5 22.5 20.7215 22.5 20.9922V22.6328C22.5 22.9035 22.2785 23.125 22.0078 23.125H20.3672C20.0965 23.125 19.875 22.9035 19.875 22.6328V20.9922ZM19.875 26.2422C19.875 25.9715 20.0965 25.75 20.3672 25.75H22.0078C22.2785 25.75 22.5 25.9715 22.5 26.2422V27.8828C22.5 28.1535 22.2785 28.375 22.0078 28.375H20.3672C20.0965 28.375 19.875 28.1535 19.875 27.8828V26.2422ZM14.625 20.9922C14.625 20.7215 14.8465 20.5 15.1172 20.5H16.7578C17.0285 20.5 17.25 20.7215 17.25 20.9922V22.6328C17.25 22.9035 17.0285 23.125 16.7578 23.125H15.1172C14.8465 23.125 14.625 22.9035 14.625 22.6328V20.9922ZM14.625 26.2422C14.625 25.9715 14.8465 25.75 15.1172 25.75H16.7578C17.0285 25.75 17.25 25.9715 17.25 26.2422V27.8828C17.25 28.1535 17.0285 28.375 16.7578 28.375H15.1172C14.8465 28.375 14.625 28.1535 14.625 27.8828V26.2422ZM28.4062 12.625H26.4375V10.6562C26.4375 10.2953 26.1422 10 25.7812 10H24.4688C24.1078 10 23.8125 10.2953 23.8125 10.6562V12.625H18.5625V10.6562C18.5625 10.2953 18.2672 10 17.9062 10H16.5938C16.2328 10 15.9375 10.2953 15.9375 10.6562V12.625H13.9688C12.8818 12.625 12 13.5068 12 14.5938V16.5625H30.375V14.5938C30.375 13.5068 29.4932 12.625 28.4062 12.625Z" fill="#E5D5B5"/>
</svg>
