<svg width="37" height="36" viewBox="0 0 37 36" fill="none" xmlns="http://www.w3.org/2000/svg">
<circle cx="18.8064" cy="18" r="18" fill="#D9D9D9"/>
<path d="M23.3012 19.5776L23.8729 15.8527H20.2987V13.4354C20.2987 12.4164 20.798 11.423 22.3988 11.423H24.0236V8.25165C24.0236 8.25165 22.5491 8 21.1393 8C18.1958 8 16.2719 9.78408 16.2719 13.0137V15.8527H13V19.5776H16.2719V28.5824H20.2987V19.5776H23.3012Z" fill="#020D23"/>
<path d="M23.3012 19.5776L23.8729 15.8527H20.2987V13.4354C20.2987 12.4164 20.798 11.423 22.3988 11.423H24.0236V8.25165C24.0236 8.25165 22.5491 8 21.1393 8C18.1958 8 16.2719 9.78408 16.2719 13.0137V15.8527H13V19.5776H16.2719V28.5824H20.2987V19.5776H23.3012Z" fill="black" fill-opacity="0.2"/>
<path d="M23.3012 19.5776L23.8729 15.8527H20.2987V13.4354C20.2987 12.4164 20.798 11.423 22.3988 11.423H24.0236V8.25165C24.0236 8.25165 22.5491 8 21.1393 8C18.1958 8 16.2719 9.78408 16.2719 13.0137V15.8527H13V19.5776H16.2719V28.5824H20.2987V19.5776H23.3012Z" fill="black" fill-opacity="0.2"/>
</svg>
