<svg width="37" height="36" viewBox="0 0 37 36" fill="none" xmlns="http://www.w3.org/2000/svg">
<circle cx="18.6128" cy="18" r="18" fill="#D9D9D9"/>
<path d="M19.0118 13.3888C16.4551 13.3888 14.3929 15.4511 14.3929 18.0078C14.3929 20.5645 16.4551 22.6268 19.0118 22.6268C21.5686 22.6268 23.6308 20.5645 23.6308 18.0078C23.6308 15.4511 21.5686 13.3888 19.0118 13.3888ZM19.0118 21.0107C17.3596 21.0107 16.0089 19.6641 16.0089 18.0078C16.0089 16.3516 17.3556 15.0049 19.0118 15.0049C20.6681 15.0049 22.0148 16.3516 22.0148 18.0078C22.0148 19.6641 20.6641 21.0107 19.0118 21.0107V21.0107ZM24.8971 13.1999C24.8971 13.7989 24.4147 14.2773 23.8198 14.2773C23.2208 14.2773 22.7424 13.7949 22.7424 13.1999C22.7424 12.6049 23.2248 12.1225 23.8198 12.1225C24.4147 12.1225 24.8971 12.6049 24.8971 13.1999ZM27.9563 14.2933C27.888 12.8502 27.5583 11.5718 26.5011 10.5186C25.4479 9.46531 24.1695 9.13567 22.7263 9.06331C21.2389 8.9789 16.7807 8.9789 15.2933 9.06331C13.8542 9.13165 12.5758 9.46129 11.5186 10.5145C10.4613 11.5678 10.1357 12.8461 10.0633 14.2893C9.9789 15.7767 9.9789 20.2349 10.0633 21.7223C10.1317 23.1655 10.4613 24.4438 11.5186 25.4971C12.5758 26.5503 13.8502 26.8799 15.2933 26.9523C16.7807 27.0367 21.2389 27.0367 22.7263 26.9523C24.1695 26.884 25.4479 26.5543 26.5011 25.4971C27.5543 24.4438 27.884 23.1655 27.9563 21.7223C28.0408 20.2349 28.0408 15.7807 27.9563 14.2933V14.2933ZM26.0348 23.3182C25.7212 24.1061 25.1142 24.7132 24.3223 25.0307C23.1364 25.5011 20.3224 25.3925 19.0118 25.3925C17.7013 25.3925 14.8833 25.4971 13.7014 25.0307C12.9135 24.7172 12.3065 24.1102 11.9889 23.3182C11.5186 22.1323 11.6271 19.3183 11.6271 18.0078C11.6271 16.6973 11.5226 13.8793 11.9889 12.6974C12.3025 11.9095 12.9095 11.3025 13.7014 10.9849C14.8873 10.5145 17.7013 10.6231 19.0118 10.6231C20.3224 10.6231 23.1404 10.5186 24.3223 10.9849C25.1102 11.2984 25.7172 11.9055 26.0348 12.6974C26.5051 13.8833 26.3966 16.6973 26.3966 18.0078C26.3966 19.3183 26.5051 22.1363 26.0348 23.3182Z" fill="#4E0707"/>
<path d="M19.0118 13.3888C16.4551 13.3888 14.3929 15.4511 14.3929 18.0078C14.3929 20.5645 16.4551 22.6268 19.0118 22.6268C21.5686 22.6268 23.6308 20.5645 23.6308 18.0078C23.6308 15.4511 21.5686 13.3888 19.0118 13.3888ZM19.0118 21.0107C17.3596 21.0107 16.0089 19.6641 16.0089 18.0078C16.0089 16.3516 17.3556 15.0049 19.0118 15.0049C20.6681 15.0049 22.0148 16.3516 22.0148 18.0078C22.0148 19.6641 20.6641 21.0107 19.0118 21.0107V21.0107ZM24.8971 13.1999C24.8971 13.7989 24.4147 14.2773 23.8198 14.2773C23.2208 14.2773 22.7424 13.7949 22.7424 13.1999C22.7424 12.6049 23.2248 12.1225 23.8198 12.1225C24.4147 12.1225 24.8971 12.6049 24.8971 13.1999ZM27.9563 14.2933C27.888 12.8502 27.5583 11.5718 26.5011 10.5186C25.4479 9.46531 24.1695 9.13567 22.7263 9.06331C21.2389 8.9789 16.7807 8.9789 15.2933 9.06331C13.8542 9.13165 12.5758 9.46129 11.5186 10.5145C10.4613 11.5678 10.1357 12.8461 10.0633 14.2893C9.9789 15.7767 9.9789 20.2349 10.0633 21.7223C10.1317 23.1655 10.4613 24.4438 11.5186 25.4971C12.5758 26.5503 13.8502 26.8799 15.2933 26.9523C16.7807 27.0367 21.2389 27.0367 22.7263 26.9523C24.1695 26.884 25.4479 26.5543 26.5011 25.4971C27.5543 24.4438 27.884 23.1655 27.9563 21.7223C28.0408 20.2349 28.0408 15.7807 27.9563 14.2933V14.2933ZM26.0348 23.3182C25.7212 24.1061 25.1142 24.7132 24.3223 25.0307C23.1364 25.5011 20.3224 25.3925 19.0118 25.3925C17.7013 25.3925 14.8833 25.4971 13.7014 25.0307C12.9135 24.7172 12.3065 24.1102 11.9889 23.3182C11.5186 22.1323 11.6271 19.3183 11.6271 18.0078C11.6271 16.6973 11.5226 13.8793 11.9889 12.6974C12.3025 11.9095 12.9095 11.3025 13.7014 10.9849C14.8873 10.5145 17.7013 10.6231 19.0118 10.6231C20.3224 10.6231 23.1404 10.5186 24.3223 10.9849C25.1102 11.2984 25.7172 11.9055 26.0348 12.6974C26.5051 13.8833 26.3966 16.6973 26.3966 18.0078C26.3966 19.3183 26.5051 22.1363 26.0348 23.3182Z" fill="black" fill-opacity="0.2"/>
<path d="M19.0118 13.3888C16.4551 13.3888 14.3929 15.4511 14.3929 18.0078C14.3929 20.5645 16.4551 22.6268 19.0118 22.6268C21.5686 22.6268 23.6308 20.5645 23.6308 18.0078C23.6308 15.4511 21.5686 13.3888 19.0118 13.3888ZM19.0118 21.0107C17.3596 21.0107 16.0089 19.6641 16.0089 18.0078C16.0089 16.3516 17.3556 15.0049 19.0118 15.0049C20.6681 15.0049 22.0148 16.3516 22.0148 18.0078C22.0148 19.6641 20.6641 21.0107 19.0118 21.0107V21.0107ZM24.8971 13.1999C24.8971 13.7989 24.4147 14.2773 23.8198 14.2773C23.2208 14.2773 22.7424 13.7949 22.7424 13.1999C22.7424 12.6049 23.2248 12.1225 23.8198 12.1225C24.4147 12.1225 24.8971 12.6049 24.8971 13.1999ZM27.9563 14.2933C27.888 12.8502 27.5583 11.5718 26.5011 10.5186C25.4479 9.46531 24.1695 9.13567 22.7263 9.06331C21.2389 8.9789 16.7807 8.9789 15.2933 9.06331C13.8542 9.13165 12.5758 9.46129 11.5186 10.5145C10.4613 11.5678 10.1357 12.8461 10.0633 14.2893C9.9789 15.7767 9.9789 20.2349 10.0633 21.7223C10.1317 23.1655 10.4613 24.4438 11.5186 25.4971C12.5758 26.5503 13.8502 26.8799 15.2933 26.9523C16.7807 27.0367 21.2389 27.0367 22.7263 26.9523C24.1695 26.884 25.4479 26.5543 26.5011 25.4971C27.5543 24.4438 27.884 23.1655 27.9563 21.7223C28.0408 20.2349 28.0408 15.7807 27.9563 14.2933V14.2933ZM26.0348 23.3182C25.7212 24.1061 25.1142 24.7132 24.3223 25.0307C23.1364 25.5011 20.3224 25.3925 19.0118 25.3925C17.7013 25.3925 14.8833 25.4971 13.7014 25.0307C12.9135 24.7172 12.3065 24.1102 11.9889 23.3182C11.5186 22.1323 11.6271 19.3183 11.6271 18.0078C11.6271 16.6973 11.5226 13.8793 11.9889 12.6974C12.3025 11.9095 12.9095 11.3025 13.7014 10.9849C14.8873 10.5145 17.7013 10.6231 19.0118 10.6231C20.3224 10.6231 23.1404 10.5186 24.3223 10.9849C25.1102 11.2984 25.7172 11.9055 26.0348 12.6974C26.5051 13.8833 26.3966 16.6973 26.3966 18.0078C26.3966 19.3183 26.5051 22.1363 26.0348 23.3182Z" fill="black" fill-opacity="0.2"/>
</svg>
