<svg width="164" height="189" viewBox="0 0 164 189" fill="none" xmlns="http://www.w3.org/2000/svg">
<rect width="164" height="189" fill="white"/>
<path d="M112 77.3708V78.3333H91.6667V58H92.6292C93.6403 58 94.6099 58.4017 95.3249 59.1166L110.883 74.6749C111.598 75.3899 112 76.3597 112 77.3708V77.3708ZM90.3958 83.4167C88.299 83.4167 86.5833 81.701 86.5833 79.6042V58H54.8125C52.7069 58 51 59.7069 51 61.8125V135.521C51 137.626 52.7069 139.333 54.8125 139.333H108.188C110.293 139.333 112 137.626 112 135.521V83.4167H90.3958ZM68.8782 85.9583C73.0895 85.9583 76.5032 89.3721 76.5032 93.5833C76.5032 97.7946 73.0895 101.208 68.8782 101.208C64.667 101.208 61.2532 97.7946 61.2532 93.5833C61.2532 89.3721 64.6672 85.9583 68.8782 85.9583ZM101.92 124.083H61.2532L61.3303 116.381L67.6074 110.104C68.3518 109.36 69.4817 109.437 70.2261 110.181L76.5032 116.458L92.947 100.015C93.6914 99.2702 94.8984 99.2702 95.6429 100.015L101.92 106.292V124.083V124.083Z" fill="#E5D5B5"/>
</svg>
