<svg width="77" height="77" viewBox="0 0 77 77" fill="none" xmlns="http://www.w3.org/2000/svg">
<circle cx="38.5" cy="38.5" r="38.5" fill="#E5D5B5"/>
<path d="M51.9643 25H44.25C42.6529 25 41.3571 26.2958 41.3571 27.8929V35.6071C41.3571 37.2042 42.6529 38.5 44.25 38.5H49.0714V42.3571C49.0714 44.4846 47.3417 46.2143 45.2143 46.2143H44.7321C43.9306 46.2143 43.2857 46.8592 43.2857 47.6607V50.5536C43.2857 51.3551 43.9306 52 44.7321 52H45.2143C50.542 52 54.8571 47.6848 54.8571 42.3571V27.8929C54.8571 26.2958 53.5614 25 51.9643 25ZM34.6071 25H26.8929C25.2958 25 24 26.2958 24 27.8929V35.6071C24 37.2042 25.2958 38.5 26.8929 38.5H31.7143V42.3571C31.7143 44.4846 29.9846 46.2143 27.8571 46.2143H27.375C26.5734 46.2143 25.9286 46.8592 25.9286 47.6607V50.5536C25.9286 51.3551 26.5734 52 27.375 52H27.8571C33.1848 52 37.5 47.6848 37.5 42.3571V27.8929C37.5 26.2958 36.2042 25 34.6071 25Z" fill="#4E0707"/>
<path d="M51.9643 25H44.25C42.6529 25 41.3571 26.2958 41.3571 27.8929V35.6071C41.3571 37.2042 42.6529 38.5 44.25 38.5H49.0714V42.3571C49.0714 44.4846 47.3417 46.2143 45.2143 46.2143H44.7321C43.9306 46.2143 43.2857 46.8592 43.2857 47.6607V50.5536C43.2857 51.3551 43.9306 52 44.7321 52H45.2143C50.542 52 54.8571 47.6848 54.8571 42.3571V27.8929C54.8571 26.2958 53.5614 25 51.9643 25ZM34.6071 25H26.8929C25.2958 25 24 26.2958 24 27.8929V35.6071C24 37.2042 25.2958 38.5 26.8929 38.5H31.7143V42.3571C31.7143 44.4846 29.9846 46.2143 27.8571 46.2143H27.375C26.5734 46.2143 25.9286 46.8592 25.9286 47.6607V50.5536C25.9286 51.3551 26.5734 52 27.375 52H27.8571C33.1848 52 37.5 47.6848 37.5 42.3571V27.8929C37.5 26.2958 36.2042 25 34.6071 25Z" fill="black" fill-opacity="0.2"/>
<path d="M51.9643 25H44.25C42.6529 25 41.3571 26.2958 41.3571 27.8929V35.6071C41.3571 37.2042 42.6529 38.5 44.25 38.5H49.0714V42.3571C49.0714 44.4846 47.3417 46.2143 45.2143 46.2143H44.7321C43.9306 46.2143 43.2857 46.8592 43.2857 47.6607V50.5536C43.2857 51.3551 43.9306 52 44.7321 52H45.2143C50.542 52 54.8571 47.6848 54.8571 42.3571V27.8929C54.8571 26.2958 53.5614 25 51.9643 25ZM34.6071 25H26.8929C25.2958 25 24 26.2958 24 27.8929V35.6071C24 37.2042 25.2958 38.5 26.8929 38.5H31.7143V42.3571C31.7143 44.4846 29.9846 46.2143 27.8571 46.2143H27.375C26.5734 46.2143 25.9286 46.8592 25.9286 47.6607V50.5536C25.9286 51.3551 26.5734 52 27.375 52H27.8571C33.1848 52 37.5 47.6848 37.5 42.3571V27.8929C37.5 26.2958 36.2042 25 34.6071 25Z" fill="black" fill-opacity="0.2"/>
</svg>
