<svg width="36" height="36" viewBox="0 0 36 36" fill="none" xmlns="http://www.w3.org/2000/svg">
<circle cx="18" cy="18" r="18" fill="#D9D9D9"/>
<path d="M28.4667 14.1661C28.4797 14.3489 28.4797 14.5318 28.4797 14.7146C28.4797 20.2912 24.2353 26.7166 16.4777 26.7166C14.0877 26.7166 11.8676 26.0244 10 24.823C10.3396 24.8621 10.666 24.8752 11.0187 24.8752C12.9907 24.8752 14.806 24.2092 16.2557 23.073C14.4012 23.0338 12.847 21.8192 12.3116 20.1475C12.5728 20.1867 12.834 20.2128 13.1083 20.2128C13.487 20.2128 13.8658 20.1605 14.2183 20.0692C12.2855 19.6773 10.8358 17.9796 10.8358 15.9292V15.877C11.3974 16.1904 12.0504 16.3863 12.7425 16.4124C11.6063 15.6549 10.8619 14.362 10.8619 12.8993C10.8619 12.1157 11.0708 11.3974 11.4365 10.7705C13.5131 13.3302 16.6344 15.0019 20.1344 15.1848C20.0691 14.8713 20.0299 14.5448 20.0299 14.2183C20.0299 11.8937 21.9106 10 24.2483 10C25.4628 10 26.5599 10.5093 27.3304 11.3321C28.2838 11.1493 29.1979 10.7966 30.0077 10.3134C29.6942 11.293 29.0282 12.1157 28.1532 12.6381C29.0021 12.5467 29.8249 12.3116 30.5823 11.9851C30.0078 12.8209 29.2894 13.5653 28.4667 14.1661V14.1661Z" fill="#020D23"/>
<path d="M28.4667 14.1661C28.4797 14.3489 28.4797 14.5318 28.4797 14.7146C28.4797 20.2912 24.2353 26.7166 16.4777 26.7166C14.0877 26.7166 11.8676 26.0244 10 24.823C10.3396 24.8621 10.666 24.8752 11.0187 24.8752C12.9907 24.8752 14.806 24.2092 16.2557 23.073C14.4012 23.0338 12.847 21.8192 12.3116 20.1475C12.5728 20.1867 12.834 20.2128 13.1083 20.2128C13.487 20.2128 13.8658 20.1605 14.2183 20.0692C12.2855 19.6773 10.8358 17.9796 10.8358 15.9292V15.877C11.3974 16.1904 12.0504 16.3863 12.7425 16.4124C11.6063 15.6549 10.8619 14.362 10.8619 12.8993C10.8619 12.1157 11.0708 11.3974 11.4365 10.7705C13.5131 13.3302 16.6344 15.0019 20.1344 15.1848C20.0691 14.8713 20.0299 14.5448 20.0299 14.2183C20.0299 11.8937 21.9106 10 24.2483 10C25.4628 10 26.5599 10.5093 27.3304 11.3321C28.2838 11.1493 29.1979 10.7966 30.0077 10.3134C29.6942 11.293 29.0282 12.1157 28.1532 12.6381C29.0021 12.5467 29.8249 12.3116 30.5823 11.9851C30.0078 12.8209 29.2894 13.5653 28.4667 14.1661V14.1661Z" fill="black" fill-opacity="0.2"/>
<path d="M28.4667 14.1661C28.4797 14.3489 28.4797 14.5318 28.4797 14.7146C28.4797 20.2912 24.2353 26.7166 16.4777 26.7166C14.0877 26.7166 11.8676 26.0244 10 24.823C10.3396 24.8621 10.666 24.8752 11.0187 24.8752C12.9907 24.8752 14.806 24.2092 16.2557 23.073C14.4012 23.0338 12.847 21.8192 12.3116 20.1475C12.5728 20.1867 12.834 20.2128 13.1083 20.2128C13.487 20.2128 13.8658 20.1605 14.2183 20.0692C12.2855 19.6773 10.8358 17.9796 10.8358 15.9292V15.877C11.3974 16.1904 12.0504 16.3863 12.7425 16.4124C11.6063 15.6549 10.8619 14.362 10.8619 12.8993C10.8619 12.1157 11.0708 11.3974 11.4365 10.7705C13.5131 13.3302 16.6344 15.0019 20.1344 15.1848C20.0691 14.8713 20.0299 14.5448 20.0299 14.2183C20.0299 11.8937 21.9106 10 24.2483 10C25.4628 10 26.5599 10.5093 27.3304 11.3321C28.2838 11.1493 29.1979 10.7966 30.0077 10.3134C29.6942 11.293 29.0282 12.1157 28.1532 12.6381C29.0021 12.5467 29.8249 12.3116 30.5823 11.9851C30.0078 12.8209 29.2894 13.5653 28.4667 14.1661V14.1661Z" fill="black" fill-opacity="0.2"/>
</svg>
