<svg width="36" height="36" viewBox="0 0 36 36" fill="none" xmlns="http://www.w3.org/2000/svg">
<circle cx="18" cy="18" r="18" fill="#D9D9D9"/>
<path d="M26.4667 14.1661C26.4797 14.3489 26.4797 14.5318 26.4797 14.7146C26.4797 20.2912 22.2353 26.7166 14.4777 26.7166C12.0877 26.7166 9.86757 26.0244 8 24.823C8.33957 24.8621 8.66603 24.8752 9.01867 24.8752C10.9907 24.8752 12.806 24.2092 14.2557 23.073C12.4012 23.0338 10.847 21.8192 10.3116 20.1475C10.5728 20.1867 10.834 20.2128 11.1083 20.2128C11.487 20.2128 11.8658 20.1605 12.2183 20.0692C10.2855 19.6773 8.8358 17.9796 8.8358 15.9292V15.877C9.39735 16.1904 10.0504 16.3863 10.7425 16.4124C9.60631 15.6549 8.86193 14.362 8.86193 12.8993C8.86193 12.1157 9.07085 11.3974 9.43655 10.7705C11.5131 13.3302 14.6344 15.0019 18.1344 15.1848C18.0691 14.8713 18.0299 14.5448 18.0299 14.2183C18.0299 11.8937 19.9106 10 22.2483 10C23.4628 10 24.5599 10.5093 25.3304 11.3321C26.2838 11.1493 27.1979 10.7966 28.0077 10.3134C27.6942 11.293 27.0282 12.1157 26.1532 12.6381C27.0021 12.5467 27.8249 12.3116 28.5823 11.9851C28.0078 12.8209 27.2894 13.5653 26.4667 14.1661V14.1661Z" fill="#4E0707"/>
<path d="M26.4667 14.1661C26.4797 14.3489 26.4797 14.5318 26.4797 14.7146C26.4797 20.2912 22.2353 26.7166 14.4777 26.7166C12.0877 26.7166 9.86757 26.0244 8 24.823C8.33957 24.8621 8.66603 24.8752 9.01867 24.8752C10.9907 24.8752 12.806 24.2092 14.2557 23.073C12.4012 23.0338 10.847 21.8192 10.3116 20.1475C10.5728 20.1867 10.834 20.2128 11.1083 20.2128C11.487 20.2128 11.8658 20.1605 12.2183 20.0692C10.2855 19.6773 8.8358 17.9796 8.8358 15.9292V15.877C9.39735 16.1904 10.0504 16.3863 10.7425 16.4124C9.60631 15.6549 8.86193 14.362 8.86193 12.8993C8.86193 12.1157 9.07085 11.3974 9.43655 10.7705C11.5131 13.3302 14.6344 15.0019 18.1344 15.1848C18.0691 14.8713 18.0299 14.5448 18.0299 14.2183C18.0299 11.8937 19.9106 10 22.2483 10C23.4628 10 24.5599 10.5093 25.3304 11.3321C26.2838 11.1493 27.1979 10.7966 28.0077 10.3134C27.6942 11.293 27.0282 12.1157 26.1532 12.6381C27.0021 12.5467 27.8249 12.3116 28.5823 11.9851C28.0078 12.8209 27.2894 13.5653 26.4667 14.1661V14.1661Z" fill="black" fill-opacity="0.2"/>
<path d="M26.4667 14.1661C26.4797 14.3489 26.4797 14.5318 26.4797 14.7146C26.4797 20.2912 22.2353 26.7166 14.4777 26.7166C12.0877 26.7166 9.86757 26.0244 8 24.823C8.33957 24.8621 8.66603 24.8752 9.01867 24.8752C10.9907 24.8752 12.806 24.2092 14.2557 23.073C12.4012 23.0338 10.847 21.8192 10.3116 20.1475C10.5728 20.1867 10.834 20.2128 11.1083 20.2128C11.487 20.2128 11.8658 20.1605 12.2183 20.0692C10.2855 19.6773 8.8358 17.9796 8.8358 15.9292V15.877C9.39735 16.1904 10.0504 16.3863 10.7425 16.4124C9.60631 15.6549 8.86193 14.362 8.86193 12.8993C8.86193 12.1157 9.07085 11.3974 9.43655 10.7705C11.5131 13.3302 14.6344 15.0019 18.1344 15.1848C18.0691 14.8713 18.0299 14.5448 18.0299 14.2183C18.0299 11.8937 19.9106 10 22.2483 10C23.4628 10 24.5599 10.5093 25.3304 11.3321C26.2838 11.1493 27.1979 10.7966 28.0077 10.3134C27.6942 11.293 27.0282 12.1157 26.1532 12.6381C27.0021 12.5467 27.8249 12.3116 28.5823 11.9851C28.0078 12.8209 27.2894 13.5653 26.4667 14.1661V14.1661Z" fill="black" fill-opacity="0.2"/>
</svg>
